<?xml version="1.0" encoding="UTF-8"?>
<svg xmlns="http://www.w3.org/2000/svg" xmlns:xlink="http://www.w3.org/1999/xlink" width="48pt" height="48pt" viewBox="0 0 48 48" version="1.1">
<g id="surface10489491">
<path style=" stroke:none;fill-rule:nonzero;fill:rgb(26.666667%,74.901961%,34.901961%);fill-opacity:1;" d="M 6 8 L 6 12 L 42 12 L 42 8 Z M 12 16 C 10.894531 16 10 16.894531 10 18 L 10 28 C 10 29.105469 10.894531 30 12 30 L 14.558594 30 L 17.222656 38 L 6 38 L 6 42 L 42 42 L 42 38 L 30.777344 38 L 33.441406 30 L 36 30 C 37.105469 30 38 29.105469 38 28 L 38 18 C 38 16.894531 37.105469 16 36 16 Z M 14 20 L 34 20 L 34 26 L 14 26 Z M 18.777344 30 L 29.222656 30 L 26.558594 38 L 21.441406 38 Z M 18.777344 30 "/>
</g>
</svg>
